<svg width="16" height="16" viewBox="0 0 16 16" fill="none" xmlns="http://www.w3.org/2000/svg">
<path fill-rule="evenodd" clip-rule="evenodd" d="M7.76958 12.5C7.35536 12.5 7.01958 12.8358 7.01958 13.25C7.01958 13.6642 7.35537 14 7.76958 14H12C13.1046 14 14 13.1046 14 12V5.25371C14 4.97358 13.8825 4.70629 13.6761 4.51689L10.1301 1.26318C9.94558 1.09391 9.70433 1 9.45397 1H4C2.89543 1 2 1.89543 2 3V8.23535C2 8.64957 2.33579 8.98535 2.75 8.98535C3.16421 8.98535 3.5 8.64957 3.5 8.23535V3C3.5 2.72386 3.72386 2.5 4 2.5H8.5L8.50001 4.74668C8.50002 5.71319 9.28353 6.49669 10.25 6.49668L12.5 6.49665V12C12.5 12.2761 12.2761 12.5 12 12.5H7.76958ZM11.9803 4.99666L10 3.17961L10 4.74668C10 4.88475 10.1119 4.99668 10.25 4.99668L11.9803 4.99666ZM2.75 10.5C3.16421 10.5 3.5 10.8358 3.5 11.25L3.5 12.5H4.75C5.16421 12.5 5.5 12.8358 5.5 13.25C5.5 13.6642 5.16421 14 4.75 14H3.5L3.49999 15.25C3.49999 15.6642 3.16421 16 2.74999 16C2.33578 16 1.99999 15.6642 1.99999 15.25L2 14H0.75C0.335787 14 0 13.6642 0 13.25C0 12.8358 0.335787 12.5 0.75 12.5H2L2 11.25C2 10.8358 2.33579 10.5 2.75 10.5Z" fill="#192435"/>
</svg>
