<svg width="32" height="32" viewBox="0 0 32 32" fill="none" xmlns="http://www.w3.org/2000/svg">
<path d="M7 1.5H20.5859C20.7185 1.50004 20.8457 1.55275 20.9395 1.64648L26.3535 7.06055C26.4472 7.15428 26.5 7.28151 26.5 7.41406V29C26.5 29.8284 25.8284 30.5 25 30.5H7C6.17157 30.5 5.5 29.8284 5.5 29V3C5.5 2.17157 6.17157 1.5 7 1.5Z" fill="white" stroke="#BBBBBB"/>
<path d="M20.5 2V6C20.5 6.82843 21.1716 7.5 22 7.5H26" stroke="#BBBBBB"/>
<path d="M16 18C16 16.8954 16.8954 16 18 16H26C27.1046 16 28 16.8954 28 18V26C28 27.1046 27.1046 28 26 28H18C16.8954 28 16 27.1046 16 26V18Z" fill="#5951BB"/>
<path d="M25.3504 18.4616L22.9604 25.6016H21.0304L18.6504 18.4616H20.4804L21.6404 22.4216C21.6737 22.5216 21.7137 22.6749 21.7604 22.8816C21.8071 23.0816 21.8537 23.2916 21.9004 23.5116C21.9537 23.7249 21.9871 23.9016 22.0004 24.0416C22.0204 23.9016 22.0504 23.7249 22.0904 23.5116C22.1371 23.2982 22.1837 23.0916 22.2304 22.8916C22.2771 22.6849 22.3171 22.5316 22.3504 22.4316L23.5304 18.4616H25.3504Z" fill="white"/>
<path d="M11.3691 9.39551C11.7619 9.07546 12.341 9.09896 12.707 9.46484L15.2432 12H22C22.5521 12.0001 22.9998 12.4479 23 13C23 13.5522 22.5522 13.9999 22 14H15.2432L13 16.2432V18H14L14.1025 18.0049C14.6065 18.0563 14.9998 18.4825 15 19V23L14.9951 23.1025C14.9472 23.5729 14.5729 23.9471 14.1025 23.9951L14 24H10C9.48232 24 9.05621 23.6067 9.00488 23.1025L9 23V19C9.00016 18.4479 9.44782 18 10 18H11V16.2422L8.46484 13.707C8.07447 13.3165 8.07437 12.6834 8.46484 12.293L11.293 9.46484L11.3691 9.39551ZM11 22H13V20H11V22ZM10.5859 13L12 14.4141L13.4141 13L12 11.5859L10.5859 13Z" fill="#BDB9E4"/>
</svg>
