<svg width="242" height="242" viewBox="0 0 242 242" fill="none" xmlns="http://www.w3.org/2000/svg">
<g opacity="0.2" filter="url(#filter0_d_376_1215)">
<path d="M57.8111 78.095C57.8111 76.931 58.7561 75.9883 59.922 75.9883H129.054L143.303 90.2087V187.645C143.303 188.809 142.358 189.752 141.192 189.752H59.922C58.7561 189.752 57.8111 188.809 57.8111 187.645V78.095Z" fill="white"/>
</g>
<g opacity="0.2" filter="url(#filter1_d_376_1215)">
<path d="M57.8111 187.645V78.095C57.8111 77.0037 58.6419 76.1073 59.7066 75.9999L59.922 75.9883H129.054L143.303 90.2087V187.645L143.291 187.86C143.191 188.852 142.401 189.64 141.407 189.74L141.192 189.752V91.0809L128.18 78.095H59.922V189.752L59.7066 189.74C58.7128 189.64 57.9232 188.852 57.8224 187.86L57.8111 187.645ZM141.192 187.645V189.752H59.922V187.645H141.192Z" fill="#CCCCCC"/>
</g>
<g opacity="0.4" filter="url(#filter2_d_376_1215)">
<path d="M66.2549 69.6692C66.2549 68.5053 67.1999 67.5625 68.3658 67.5625H137.498L151.747 81.7829V179.219C151.747 180.383 150.802 181.326 149.636 181.326H68.3658C67.1999 181.326 66.2549 180.383 66.2549 179.219V69.6692Z" fill="white"/>
</g>
<g opacity="0.4" filter="url(#filter3_d_376_1215)">
<path d="M66.2549 179.219V69.6692C66.2549 68.5779 67.0857 67.6815 68.1504 67.5741L68.3658 67.5625H137.498L151.747 81.7829V179.219L151.735 179.434C151.635 180.426 150.845 181.214 149.851 181.314L149.636 181.326V82.6551L136.624 69.6692H68.3658V181.326L68.1504 181.314C67.1566 181.214 66.367 180.426 66.2662 179.434L66.2549 179.219ZM149.636 179.219V181.326H68.3658V179.219H149.636Z" fill="#CCCCCC"/>
</g>
<g opacity="0.8" filter="url(#filter4_d_376_1215)">
<path d="M73.643 62.2942C73.643 61.1307 74.5876 60.1875 75.7539 60.1875H144.886L159.135 74.4079V171.844C159.135 173.008 158.19 173.951 157.024 173.951H75.7539C74.5876 173.951 73.643 173.008 73.643 171.844V62.2942Z" fill="white"/>
</g>
<g opacity="0.8" filter="url(#filter5_d_376_1215)">
<path d="M73.643 171.844V62.2942C73.643 61.2033 74.4736 60.3065 75.5386 60.1988L75.7539 60.1875H144.886L159.135 74.4079V171.844L159.123 172.059C159.023 173.051 158.233 173.839 157.239 173.939L157.024 173.951V75.2801L144.012 62.2942H75.7539V173.951L75.5386 173.939C74.5444 173.839 73.7549 173.051 73.6546 172.059L73.643 171.844ZM157.024 171.844V173.951H75.7539V171.844H157.024Z" fill="#CCCCCC"/>
</g>
<g filter="url(#filter6_d_376_1215)">
<path d="M82.0867 53.8684C82.0867 52.7049 83.0313 51.7617 84.1976 51.7617H153.33L167.578 65.9821V163.418C167.578 164.582 166.634 165.525 165.467 165.525H84.1976C83.0313 165.525 82.0867 164.582 82.0867 163.418V53.8684Z" fill="white"/>
</g>
<g filter="url(#filter7_d_376_1215)">
<path d="M82.0867 163.418V53.8684C82.0867 52.7775 82.9173 51.8807 83.9823 51.773L84.1976 51.7617H153.33L167.578 65.9821V163.418L167.567 163.633C167.466 164.626 166.677 165.413 165.683 165.514L165.467 165.525V66.8543L152.456 53.8684H84.1976V165.525L83.9823 165.514C82.988 165.413 82.1985 164.626 82.0983 163.633L82.0867 163.418ZM165.467 163.418V165.525H84.1976V163.418H165.467Z" fill="#AAAAAA"/>
</g>
<path d="M151.746 51.7617L166.523 66.5088H152.802C152.219 66.5088 151.746 66.0369 151.746 65.4555V51.7617Z" fill="#AAAAAA"/>
<path d="M83.0323 107.252C83.1705 107.779 82.8834 108.318 82.3821 108.504L82.2797 108.538L80.2089 109.087C78.0305 109.655 75.5744 110.225 73.2376 110.268C70.1551 110.324 67.0904 109.466 65.0333 106.427L64.8369 106.127C64.3532 105.353 64.3467 104.45 64.5155 103.628C64.6861 102.798 65.064 101.907 65.5419 101.015C66.5004 99.226 67.9794 97.2193 69.4954 95.3317C71.0167 93.4377 72.6202 91.607 73.8371 90.187C74.4514 89.4697 74.9591 88.8661 75.3201 88.4016C75.5016 88.1677 75.6325 87.9866 75.718 87.8528C75.7581 87.7896 75.7792 87.7517 75.7876 87.7359C75.9343 87.2166 76.4557 86.8858 76.9972 86.9869C77.5344 87.088 77.8996 87.5779 77.8531 88.1109L77.8394 88.2162L77.812 88.3321C77.7381 88.5986 77.5924 88.8366 77.4975 88.9862C77.3624 89.1979 77.1872 89.437 76.9898 89.692C76.594 90.2018 76.0547 90.8412 75.4425 91.5564C74.2055 93.0006 72.636 94.7892 71.1419 96.6494C69.6433 98.5149 68.2664 100.398 67.4035 102.009C66.971 102.816 66.6955 103.504 66.5829 104.052C66.4688 104.608 66.5476 104.883 66.6272 105.01L66.7737 105.234C68.3032 107.501 70.5554 108.209 73.1986 108.161C75.2958 108.123 77.5186 107.609 79.6506 107.052L81.7435 106.499L81.8501 106.477C82.3779 106.394 82.894 106.724 83.0323 107.252Z" fill="#AAAAAA"/>
<path d="M75.2831 80.7049C74.4177 81.4096 73.3179 82.9612 73.3295 84.7383L73.3369 84.9668C73.4456 86.9914 74.7945 87.9826 75.7876 88.5873L76.1993 88.8316L76.2953 88.8822C76.7808 89.1066 77.3666 88.9317 77.6452 88.463C77.9239 87.9942 77.7962 87.397 77.3666 87.0799L77.2758 87.0199L76.8779 86.7807C76.0589 86.2741 75.5291 85.8243 75.451 84.9363L75.4404 84.7235C75.4341 83.7555 76.0969 82.7611 76.6162 82.3387C77.0679 81.9721 77.1365 81.3085 76.7682 80.8566C76.4009 80.4058 75.7359 80.3384 75.2831 80.7049Z" fill="#AAAAAA"/>
<path d="M165.572 106.197C165.433 106.725 165.722 107.263 166.223 107.449L166.325 107.483L168.396 108.032C170.574 108.601 173.03 109.171 175.366 109.214C178.449 109.27 181.514 108.411 183.571 105.372L183.768 105.072C184.251 104.299 184.258 103.395 184.089 102.573C183.919 101.743 183.541 100.852 183.063 99.9599C182.104 98.1713 180.625 96.1646 179.109 94.277C177.588 92.383 175.984 90.5523 174.767 89.1323C174.154 88.415 173.645 87.8114 173.284 87.3469C173.102 87.113 172.972 86.9319 172.887 86.7981C172.846 86.7349 172.825 86.697 172.816 86.6812C172.67 86.1619 172.148 85.8311 171.607 85.9322C171.07 86.0334 170.705 86.5232 170.751 87.0562L170.766 87.1615L170.792 87.2774C170.867 87.5439 171.012 87.7819 171.107 87.9315C171.242 88.1432 171.417 88.3824 171.614 88.6373C172.011 89.1471 172.549 89.7865 173.163 90.5017C174.4 91.9459 175.969 93.7345 177.463 95.5947C178.961 97.4603 180.338 99.3437 181.201 100.954C181.634 101.761 181.909 102.449 182.021 102.998C182.135 103.553 182.057 103.828 181.977 103.955L181.831 104.18C180.302 106.447 178.049 107.154 175.405 107.106C173.308 107.068 171.085 106.554 168.953 105.998L166.86 105.445L166.755 105.423C166.226 105.339 165.711 105.669 165.572 106.197Z" fill="#AAAAAA"/>
<path d="M173.321 79.6502C174.187 80.3549 175.287 81.9065 175.274 83.6836L175.267 83.9122C175.158 85.9367 173.81 86.9279 172.817 87.5326L172.405 87.777L172.309 87.8275C171.823 88.0519 171.237 87.877 170.959 87.4083C170.68 86.9395 170.808 86.3423 171.238 86.0252L171.328 85.9652L171.727 85.7261C172.546 85.2194 173.076 84.7696 173.153 83.8816L173.164 83.6688C173.17 82.7008 172.507 81.7064 171.988 81.284C171.536 80.9174 171.467 80.2538 171.836 79.8019C172.204 79.3511 172.869 79.2837 173.321 79.6502Z" fill="#AAAAAA"/>
<path d="M116.607 86.0744L116.68 86.1545C117.018 86.5684 116.994 87.1783 116.607 87.5639C116.221 87.9494 115.61 87.9736 115.195 87.6365L115.115 87.5639L108.782 81.2437C108.369 80.8329 108.369 80.165 108.782 79.7542C109.194 79.3423 109.863 79.3423 110.275 79.7542L116.607 86.0744Z" fill="#AAAAAA"/>
<path d="M115.115 79.7539L115.195 79.6812C115.61 79.3441 116.221 79.3683 116.607 79.7539C116.994 80.1394 117.018 80.7493 116.68 81.1633L116.607 81.2433L110.275 87.5635C109.863 87.9754 109.194 87.9754 108.782 87.5635C108.369 87.1527 108.369 86.4849 108.782 86.074L115.115 79.7539Z" fill="#AAAAAA"/>
<path d="M139.827 86.0744L139.9 86.1545C140.238 86.5684 140.214 87.1783 139.827 87.5639C139.441 87.9494 138.83 87.9736 138.415 87.6365L138.335 87.5639L132.002 81.2437C131.589 80.8329 131.589 80.165 132.002 79.7542C132.414 79.3423 133.083 79.3423 133.495 79.7542L139.827 86.0744Z" fill="#AAAAAA"/>
<path d="M138.335 79.7539L138.415 79.6812C138.83 79.3441 139.441 79.3683 139.827 79.7539C140.214 80.1394 140.238 80.7493 139.9 81.1633L139.827 81.2433L133.495 87.5635C133.083 87.9754 132.414 87.9754 132.002 87.5635C131.589 87.1527 131.589 86.4849 132.002 86.074L138.335 79.7539Z" fill="#AAAAAA"/>
<path d="M127.471 98.6386C127.471 101.256 126.29 103.379 124.832 103.379C123.375 103.379 122.194 101.256 122.194 98.6386C122.194 96.021 123.375 93.8984 124.832 93.8984C126.29 93.8984 127.471 96.021 127.471 98.6386Z" fill="#AAAAAA"/>
<defs>
<filter id="filter0_d_376_1215" x="42.8111" y="67.9883" width="115.492" height="143.762" filterUnits="userSpaceOnUse" color-interpolation-filters="sRGB">
<feFlood flood-opacity="0" result="BackgroundImageFix"/>
<feColorMatrix in="SourceAlpha" type="matrix" values="0 0 0 0 0 0 0 0 0 0 0 0 0 0 0 0 0 0 127 0" result="hardAlpha"/>
<feOffset dy="7"/>
<feGaussianBlur stdDeviation="7.5"/>
<feColorMatrix type="matrix" values="0 0 0 0 0.333333 0 0 0 0 0.333333 0 0 0 0 0.333333 0 0 0 0.1 0"/>
<feBlend mode="normal" in2="BackgroundImageFix" result="effect1_dropShadow_376_1215"/>
<feBlend mode="normal" in="SourceGraphic" in2="effect1_dropShadow_376_1215" result="shape"/>
</filter>
<filter id="filter1_d_376_1215" x="42.8111" y="67.9883" width="115.492" height="143.762" filterUnits="userSpaceOnUse" color-interpolation-filters="sRGB">
<feFlood flood-opacity="0" result="BackgroundImageFix"/>
<feColorMatrix in="SourceAlpha" type="matrix" values="0 0 0 0 0 0 0 0 0 0 0 0 0 0 0 0 0 0 127 0" result="hardAlpha"/>
<feOffset dy="7"/>
<feGaussianBlur stdDeviation="7.5"/>
<feColorMatrix type="matrix" values="0 0 0 0 0.333333 0 0 0 0 0.333333 0 0 0 0 0.333333 0 0 0 0.1 0"/>
<feBlend mode="normal" in2="BackgroundImageFix" result="effect1_dropShadow_376_1215"/>
<feBlend mode="normal" in="SourceGraphic" in2="effect1_dropShadow_376_1215" result="shape"/>
</filter>
<filter id="filter2_d_376_1215" x="51.2549" y="59.5625" width="115.492" height="143.762" filterUnits="userSpaceOnUse" color-interpolation-filters="sRGB">
<feFlood flood-opacity="0" result="BackgroundImageFix"/>
<feColorMatrix in="SourceAlpha" type="matrix" values="0 0 0 0 0 0 0 0 0 0 0 0 0 0 0 0 0 0 127 0" result="hardAlpha"/>
<feOffset dy="7"/>
<feGaussianBlur stdDeviation="7.5"/>
<feColorMatrix type="matrix" values="0 0 0 0 0.333333 0 0 0 0 0.333333 0 0 0 0 0.333333 0 0 0 0.1 0"/>
<feBlend mode="normal" in2="BackgroundImageFix" result="effect1_dropShadow_376_1215"/>
<feBlend mode="normal" in="SourceGraphic" in2="effect1_dropShadow_376_1215" result="shape"/>
</filter>
<filter id="filter3_d_376_1215" x="51.2549" y="59.5625" width="115.492" height="143.762" filterUnits="userSpaceOnUse" color-interpolation-filters="sRGB">
<feFlood flood-opacity="0" result="BackgroundImageFix"/>
<feColorMatrix in="SourceAlpha" type="matrix" values="0 0 0 0 0 0 0 0 0 0 0 0 0 0 0 0 0 0 127 0" result="hardAlpha"/>
<feOffset dy="7"/>
<feGaussianBlur stdDeviation="7.5"/>
<feColorMatrix type="matrix" values="0 0 0 0 0.333333 0 0 0 0 0.333333 0 0 0 0 0.333333 0 0 0 0.1 0"/>
<feBlend mode="normal" in2="BackgroundImageFix" result="effect1_dropShadow_376_1215"/>
<feBlend mode="normal" in="SourceGraphic" in2="effect1_dropShadow_376_1215" result="shape"/>
</filter>
<filter id="filter4_d_376_1215" x="58.643" y="52.1875" width="115.492" height="143.762" filterUnits="userSpaceOnUse" color-interpolation-filters="sRGB">
<feFlood flood-opacity="0" result="BackgroundImageFix"/>
<feColorMatrix in="SourceAlpha" type="matrix" values="0 0 0 0 0 0 0 0 0 0 0 0 0 0 0 0 0 0 127 0" result="hardAlpha"/>
<feOffset dy="7"/>
<feGaussianBlur stdDeviation="7.5"/>
<feColorMatrix type="matrix" values="0 0 0 0 0.333333 0 0 0 0 0.333333 0 0 0 0 0.333333 0 0 0 0.1 0"/>
<feBlend mode="normal" in2="BackgroundImageFix" result="effect1_dropShadow_376_1215"/>
<feBlend mode="normal" in="SourceGraphic" in2="effect1_dropShadow_376_1215" result="shape"/>
</filter>
<filter id="filter5_d_376_1215" x="58.643" y="52.1875" width="115.492" height="143.762" filterUnits="userSpaceOnUse" color-interpolation-filters="sRGB">
<feFlood flood-opacity="0" result="BackgroundImageFix"/>
<feColorMatrix in="SourceAlpha" type="matrix" values="0 0 0 0 0 0 0 0 0 0 0 0 0 0 0 0 0 0 127 0" result="hardAlpha"/>
<feOffset dy="7"/>
<feGaussianBlur stdDeviation="7.5"/>
<feColorMatrix type="matrix" values="0 0 0 0 0.333333 0 0 0 0 0.333333 0 0 0 0 0.333333 0 0 0 0.1 0"/>
<feBlend mode="normal" in2="BackgroundImageFix" result="effect1_dropShadow_376_1215"/>
<feBlend mode="normal" in="SourceGraphic" in2="effect1_dropShadow_376_1215" result="shape"/>
</filter>
<filter id="filter6_d_376_1215" x="67.0867" y="43.7617" width="115.492" height="143.762" filterUnits="userSpaceOnUse" color-interpolation-filters="sRGB">
<feFlood flood-opacity="0" result="BackgroundImageFix"/>
<feColorMatrix in="SourceAlpha" type="matrix" values="0 0 0 0 0 0 0 0 0 0 0 0 0 0 0 0 0 0 127 0" result="hardAlpha"/>
<feOffset dy="7"/>
<feGaussianBlur stdDeviation="7.5"/>
<feColorMatrix type="matrix" values="0 0 0 0 0.333333 0 0 0 0 0.333333 0 0 0 0 0.333333 0 0 0 0.1 0"/>
<feBlend mode="normal" in2="BackgroundImageFix" result="effect1_dropShadow_376_1215"/>
<feBlend mode="normal" in="SourceGraphic" in2="effect1_dropShadow_376_1215" result="shape"/>
</filter>
<filter id="filter7_d_376_1215" x="67.0867" y="43.7617" width="115.492" height="143.762" filterUnits="userSpaceOnUse" color-interpolation-filters="sRGB">
<feFlood flood-opacity="0" result="BackgroundImageFix"/>
<feColorMatrix in="SourceAlpha" type="matrix" values="0 0 0 0 0 0 0 0 0 0 0 0 0 0 0 0 0 0 127 0" result="hardAlpha"/>
<feOffset dy="7"/>
<feGaussianBlur stdDeviation="7.5"/>
<feColorMatrix type="matrix" values="0 0 0 0 0.333333 0 0 0 0 0.333333 0 0 0 0 0.333333 0 0 0 0.1 0"/>
<feBlend mode="normal" in2="BackgroundImageFix" result="effect1_dropShadow_376_1215"/>
<feBlend mode="normal" in="SourceGraphic" in2="effect1_dropShadow_376_1215" result="shape"/>
</filter>
</defs>
</svg>
