<svg width="16" height="16" viewBox="0 0 16 16" fill="none" xmlns="http://www.w3.org/2000/svg">
<path d="M13.1639 8C12.7541 8.4564 12.1898 9.02436 11.5175 9.5463C10.4178 10.4001 9.19799 11 7.99996 11C6.80194 11 5.58214 10.4001 4.48243 9.5463C3.81015 9.02436 3.24579 8.4564 2.83608 8C3.24579 7.54361 3.81015 6.97564 4.48243 6.4537C5.58214 5.5999 6.80194 5 7.99996 5C9.19799 5 10.4178 5.5999 11.5175 6.4537C12.1898 6.97564 12.7541 7.54361 13.1639 8ZM14.9101 8.25155C15.0273 8.10127 15.0273 7.89874 14.9101 7.74845C14.1716 6.80082 11.3581 3.5 7.99996 3.5C4.64188 3.5 1.82834 6.80082 1.0898 7.74845C0.972672 7.89873 0.972672 8.10126 1.0898 8.25155C1.82834 9.19918 4.64188 12.5 7.99996 12.5C11.3581 12.5 14.1716 9.19918 14.9101 8.25155ZM9 7.99991C9 7.44762 8.55228 6.99991 8 6.99991C7.44772 6.99991 7 7.44762 7 7.99991C7 8.55219 7.44772 8.99991 8 8.99991C8.55228 8.99991 9 8.55219 9 7.99991ZM10.5 7.99991C10.5 9.38062 9.38071 10.4999 8 10.4999C6.61929 10.4999 5.5 9.38062 5.5 7.99991C5.5 6.6192 6.61929 5.49991 8 5.49991C9.38071 5.49991 10.5 6.6192 10.5 7.99991Z" fill="white" fill-opacity="0.847"/>
</svg>
