<svg width="16" height="16" viewBox="0 0 16 16" fill="none" xmlns="http://www.w3.org/2000/svg">
<path d="M2.11967 10.4861C2.00914 10.5966 1.93591 10.7389 1.91021 10.8931L1.4388 13.7216C1.39898 13.9605 1.477 14.2039 1.64827 14.3752C1.81954 14.5465 2.06298 14.6245 2.3019 14.5847L5.13032 14.1132C5.28451 14.0876 5.42682 14.0143 5.53736 13.9038L14.0226 5.4185C14.8362 4.60491 14.8362 3.28582 14.0226 2.47222L13.5512 2.00082C12.7376 1.18723 11.4185 1.18723 10.605 2.00082L2.11967 10.4861ZM3.09101 12.9324L3.35029 11.3768L9.95683 4.77027L11.2532 6.06663L4.64665 12.6732L3.09101 12.9324ZM12.3138 5.00597L11.0175 3.70961L11.6656 3.06148C11.8934 2.83367 12.2628 2.83367 12.4906 3.06148L12.962 3.53289C13.1898 3.76069 13.1898 4.13004 12.962 4.35784L12.3138 5.00597Z" fill="white" fill-opacity="0.847"/>
</svg>
