<svg width="16" height="16" viewBox="0 0 16 16" fill="none" xmlns="http://www.w3.org/2000/svg">
<path d="M2.1198 10.4861C2.00926 10.5966 1.93603 10.7389 1.91033 10.8931L1.43892 13.7216C1.39911 13.9605 1.47712 14.2039 1.64839 14.3752C1.81966 14.5465 2.0631 14.6245 2.30202 14.5847L5.13045 14.1132C5.28464 14.0876 5.42694 14.0143 5.53748 13.9038L14.0228 5.4185C14.8364 4.60491 14.8364 3.28582 14.0228 2.47222L13.5514 2.00082C12.7378 1.18723 11.4187 1.18723 10.6051 2.00082L2.1198 10.4861ZM3.09113 12.9324L3.35041 11.3768L9.95695 4.77027L11.2533 6.06663L4.64677 12.6732L3.09113 12.9324ZM12.314 5.00597L11.0176 3.70961L11.6657 3.06148C11.8935 2.83367 12.2629 2.83367 12.4907 3.06148L12.9621 3.53289C13.1899 3.76069 13.1899 4.13004 12.9621 4.35784L12.314 5.00597Z" fill="#192435"/>
</svg>
