<svg width="32" height="32" viewBox="0 0 32 32" fill="none" xmlns="http://www.w3.org/2000/svg">
<path d="M7 1.5H20.5859C20.7185 1.50004 20.8457 1.55275 20.9395 1.64648L26.3535 7.06055C26.4472 7.15428 26.5 7.28151 26.5 7.41406V29C26.5 29.8284 25.8284 30.5 25 30.5H7C6.17157 30.5 5.5 29.8284 5.5 29V3C5.5 2.17157 6.17157 1.5 7 1.5Z" fill="white" stroke="#BBBBBB"/>
<path d="M20.5 2V6C20.5 6.82843 21.1716 7.5 22 7.5H26" stroke="#BBBBBB"/>
<path d="M16.4996 10.0215C17.5101 10.1059 18.486 10.4453 19.3336 11.0117C20.3202 11.671 21.0895 12.6079 21.5436 13.7041C21.9977 14.8004 22.1159 16.007 21.8844 17.1709C21.6529 18.3347 21.0819 19.4041 20.2428 20.2432C19.4037 21.0823 18.3344 21.6532 17.1705 21.8848C16.0067 22.1163 14.8001 21.998 13.7037 21.5439C12.6075 21.0899 11.6706 20.3205 11.0114 19.334C10.445 18.4864 10.1056 17.5105 10.0211 16.5C9.99814 16.2249 10.2236 16.0002 10.4996 16H15.4996C15.7758 16 15.9996 15.7761 15.9996 15.5V10.5C15.9998 10.224 16.2245 9.99851 16.4996 10.0215ZM13.5006 9.02539C13.7753 8.99783 13.9995 9.22399 13.9996 9.5V13.5C13.9996 13.7761 13.7758 14 13.4996 14H9.49963C9.22362 13.9998 8.99747 13.7756 9.02502 13.501C9.07373 13.0157 9.19316 12.5392 9.38049 12.0869C9.63177 11.4803 10.0002 10.9291 10.4645 10.4648C10.9288 10.0006 11.4799 9.63213 12.0865 9.38086C12.5388 9.19353 13.0153 9.0741 13.5006 9.02539Z" fill="#FAC299"/>
<path d="M16 18C16 16.8954 16.8954 16 18 16H26C27.1046 16 28 16.8954 28 18V26C28 27.1046 27.1046 28 26 28H18C16.8954 28 16 27.1046 16 26V18Z" fill="#F36700"/>
<path d="M22.0606 18.4616C22.9739 18.4616 23.6473 18.6616 24.0806 19.0616C24.5206 19.4549 24.7406 20.0049 24.7406 20.7116C24.7406 21.0316 24.6939 21.3382 24.6006 21.6316C24.5073 21.9182 24.3506 22.1749 24.1306 22.4016C23.9173 22.6282 23.6339 22.8082 23.2806 22.9416C22.9339 23.0749 22.5039 23.1416 21.9906 23.1416H21.3906V25.6016H19.6906V18.4616H22.0606ZM22.0006 19.8516H21.3906V21.7516H21.8406C22.0739 21.7516 22.2773 21.7182 22.4506 21.6516C22.6306 21.5849 22.7706 21.4782 22.8706 21.3316C22.9706 21.1849 23.0206 20.9949 23.0206 20.7616C23.0206 20.4682 22.9373 20.2449 22.7706 20.0916C22.6039 19.9316 22.3473 19.8516 22.0006 19.8516Z" fill="white"/>
</svg>
