<svg width="32" height="32" viewBox="0 0 32 32" fill="none" xmlns="http://www.w3.org/2000/svg">
<path d="M7 1.5H20.5859C20.7185 1.50004 20.8457 1.55275 20.9395 1.64648L26.3535 7.06055C26.4472 7.15428 26.5 7.28151 26.5 7.41406V29C26.5 29.8284 25.8284 30.5 25 30.5H7C6.17157 30.5 5.5 29.8284 5.5 29V3C5.5 2.17157 6.17157 1.5 7 1.5Z" fill="white" stroke="#BBBBBB"/>
<path d="M20.5 2V6C20.5 6.82843 21.1716 7.5 22 7.5H26" stroke="#BBBBBB"/>
<path d="M13 20C13.5523 20 14 20.4477 14 21C14 21.5523 13.5523 22 13 22H10C9.44772 22 9 21.5523 9 21C9 20.4477 9.44772 20 10 20H13ZM13 16C13.5523 16 14 16.4477 14 17C14 17.5523 13.5523 18 13 18H10C9.44772 18 9 17.5523 9 17C9 16.4477 9.44772 16 10 16H13ZM22 12C22.5523 12 23 12.4477 23 13C23 13.5523 22.5523 14 22 14H10C9.44772 14 9 13.5523 9 13C9 12.4477 9.44772 12 10 12H22Z" fill="#A9CBDD"/>
<path d="M16 18C16 16.8954 16.8954 16 18 16H26C27.1046 16 28 16.8954 28 18V26C28 27.1046 27.1046 28 26 28H18C16.8954 28 16 27.1046 16 26V18Z" fill="#287CA9"/>
<path d="M26.93 18.4616L25.14 25.6016H23.16L22.33 22.1516C22.31 22.0782 22.2867 21.9716 22.26 21.8316C22.2333 21.6849 22.2 21.5249 22.16 21.3516C22.1267 21.1716 22.0967 21.0016 22.07 20.8416C22.0433 20.6749 22.0233 20.5416 22.01 20.4416C21.9967 20.5416 21.9733 20.6749 21.94 20.8416C21.9133 21.0016 21.8833 21.1716 21.85 21.3516C21.8167 21.5249 21.7833 21.6849 21.75 21.8316C21.7233 21.9716 21.7 22.0782 21.68 22.1516L20.84 25.6016H18.87L17.07 18.4616H18.73L19.58 22.2116C19.6067 22.3116 19.6367 22.4449 19.67 22.6116C19.7033 22.7716 19.7367 22.9449 19.77 23.1316C19.8033 23.3116 19.8333 23.4882 19.86 23.6616C19.8933 23.8282 19.9167 23.9716 19.93 24.0916C19.95 23.9316 19.9767 23.7482 20.01 23.5416C20.05 23.3349 20.09 23.1249 20.13 22.9116C20.17 22.6982 20.21 22.4982 20.25 22.3116C20.29 22.1249 20.3267 21.9749 20.36 21.8616L21.21 18.4616H22.8L23.65 21.8616C23.67 21.9749 23.7 22.1249 23.74 22.3116C23.7867 22.4982 23.83 22.7016 23.87 22.9216C23.9167 23.1349 23.9567 23.3449 23.99 23.5516C24.0233 23.7582 24.05 23.9382 24.07 24.0916C24.09 23.9249 24.12 23.7249 24.16 23.4916C24.2067 23.2516 24.2533 23.0149 24.3 22.7816C24.3467 22.5416 24.3867 22.3549 24.42 22.2216L25.27 18.4616H26.93Z" fill="white"/>
</svg>
